%TF.GenerationSoftware,KiCad,Pcbnew,9.0.0*%
%TF.CreationDate,2025-04-25T21:38:16-04:00*%
%TF.ProjectId,OSTR_hat,4f535452-5f68-4617-942e-6b696361645f,2b*%
%TF.SameCoordinates,Original*%
%TF.FileFunction,Profile,NP*%
%FSLAX46Y46*%
G04 Gerber Fmt 4.6, Leading zero omitted, Abs format (unit mm)*
G04 Created by KiCad (PCBNEW 9.0.0) date 2025-04-25 21:38:16*
%MOMM*%
%LPD*%
G01*
G04 APERTURE LIST*
%TA.AperFunction,Profile*%
%ADD10C,0.100000*%
%TD*%
G04 APERTURE END LIST*
D10*
X76650000Y-105725000D02*
G75*
G02*
X76150000Y-105225000I0J500000D01*
G01*
X138150000Y-86225000D02*
G75*
G02*
X141150000Y-89225000I0J-3000000D01*
G01*
X141150000Y-139225000D02*
X141150000Y-89225000D01*
X76150000Y-89225000D02*
X76150000Y-105225000D01*
X122150000Y-123225000D02*
X122150000Y-138225000D01*
X120150000Y-138225000D02*
X120150000Y-123225000D01*
X79150000Y-142225000D02*
G75*
G02*
X76150000Y-139225000I0J3000000D01*
G01*
X79150000Y-142225000D02*
X138150000Y-142225000D01*
X80650000Y-122725000D02*
X76650000Y-122725000D01*
X120150000Y-123225000D02*
G75*
G02*
X122150000Y-123225000I1000000J0D01*
G01*
X76150000Y-123225000D02*
G75*
G02*
X76649127Y-122725001I500000J0D01*
G01*
X141150000Y-139225000D02*
G75*
G02*
X138150000Y-142225000I-3000000J0D01*
G01*
X81150000Y-106225000D02*
X81150000Y-122225000D01*
X76150000Y-89225000D02*
G75*
G02*
X79150000Y-86225000I3000000J0D01*
G01*
X122150000Y-138225000D02*
G75*
G02*
X120150000Y-138225000I-1000000J0D01*
G01*
X76150000Y-123225000D02*
X76150000Y-139225000D01*
X76650000Y-105725000D02*
X80650000Y-105725000D01*
X81150000Y-122225000D02*
G75*
G02*
X80650000Y-122725000I-500000J0D01*
G01*
X80650000Y-105725000D02*
G75*
G02*
X81150000Y-106225000I0J-500000D01*
G01*
X138150000Y-86225000D02*
X79150000Y-86225000D01*
M02*
