%TF.GenerationSoftware,KiCad,Pcbnew,9.0.0*%
%TF.CreationDate,2025-04-25T21:38:16-04:00*%
%TF.ProjectId,OSTR_hat,4f535452-5f68-4617-942e-6b696361645f,2b*%
%TF.SameCoordinates,Original*%
%TF.FileFunction,Legend,Bot*%
%TF.FilePolarity,Positive*%
%FSLAX46Y46*%
G04 Gerber Fmt 4.6, Leading zero omitted, Abs format (unit mm)*
G04 Created by KiCad (PCBNEW 9.0.0) date 2025-04-25 21:38:16*
%MOMM*%
%LPD*%
G01*
G04 APERTURE LIST*
%ADD10C,0.150000*%
%ADD11C,0.120000*%
%ADD12R,1.700000X1.700000*%
%ADD13O,1.700000X1.700000*%
%ADD14R,2.200000X2.200000*%
%ADD15C,2.200000*%
%ADD16C,2.700000*%
%ADD17C,1.100000*%
%ADD18C,0.499999*%
%ADD19R,2.600000X2.600000*%
%ADD20C,2.600000*%
%ADD21R,1.500000X1.000000*%
%ADD22R,1.000000X1.500000*%
G04 APERTURE END LIST*
D10*
X134322744Y-116784875D02*
X134132268Y-116784875D01*
X134132268Y-116784875D02*
X134037030Y-116832494D01*
X134037030Y-116832494D02*
X133941792Y-116927732D01*
X133941792Y-116927732D02*
X133894173Y-117118208D01*
X133894173Y-117118208D02*
X133894173Y-117451541D01*
X133894173Y-117451541D02*
X133941792Y-117642017D01*
X133941792Y-117642017D02*
X134037030Y-117737256D01*
X134037030Y-117737256D02*
X134132268Y-117784875D01*
X134132268Y-117784875D02*
X134322744Y-117784875D01*
X134322744Y-117784875D02*
X134417982Y-117737256D01*
X134417982Y-117737256D02*
X134513220Y-117642017D01*
X134513220Y-117642017D02*
X134560839Y-117451541D01*
X134560839Y-117451541D02*
X134560839Y-117118208D01*
X134560839Y-117118208D02*
X134513220Y-116927732D01*
X134513220Y-116927732D02*
X134417982Y-116832494D01*
X134417982Y-116832494D02*
X134322744Y-116784875D01*
X133465601Y-117118208D02*
X133465601Y-118118208D01*
X133465601Y-117165827D02*
X133370363Y-117118208D01*
X133370363Y-117118208D02*
X133179887Y-117118208D01*
X133179887Y-117118208D02*
X133084649Y-117165827D01*
X133084649Y-117165827D02*
X133037030Y-117213446D01*
X133037030Y-117213446D02*
X132989411Y-117308684D01*
X132989411Y-117308684D02*
X132989411Y-117594398D01*
X132989411Y-117594398D02*
X133037030Y-117689636D01*
X133037030Y-117689636D02*
X133084649Y-117737256D01*
X133084649Y-117737256D02*
X133179887Y-117784875D01*
X133179887Y-117784875D02*
X133370363Y-117784875D01*
X133370363Y-117784875D02*
X133465601Y-117737256D01*
X132179887Y-117737256D02*
X132275125Y-117784875D01*
X132275125Y-117784875D02*
X132465601Y-117784875D01*
X132465601Y-117784875D02*
X132560839Y-117737256D01*
X132560839Y-117737256D02*
X132608458Y-117642017D01*
X132608458Y-117642017D02*
X132608458Y-117261065D01*
X132608458Y-117261065D02*
X132560839Y-117165827D01*
X132560839Y-117165827D02*
X132465601Y-117118208D01*
X132465601Y-117118208D02*
X132275125Y-117118208D01*
X132275125Y-117118208D02*
X132179887Y-117165827D01*
X132179887Y-117165827D02*
X132132268Y-117261065D01*
X132132268Y-117261065D02*
X132132268Y-117356303D01*
X132132268Y-117356303D02*
X132608458Y-117451541D01*
X131703696Y-117118208D02*
X131703696Y-117784875D01*
X131703696Y-117213446D02*
X131656077Y-117165827D01*
X131656077Y-117165827D02*
X131560839Y-117118208D01*
X131560839Y-117118208D02*
X131417982Y-117118208D01*
X131417982Y-117118208D02*
X131322744Y-117165827D01*
X131322744Y-117165827D02*
X131275125Y-117261065D01*
X131275125Y-117261065D02*
X131275125Y-117784875D01*
X130084648Y-117737256D02*
X129941791Y-117784875D01*
X129941791Y-117784875D02*
X129703696Y-117784875D01*
X129703696Y-117784875D02*
X129608458Y-117737256D01*
X129608458Y-117737256D02*
X129560839Y-117689636D01*
X129560839Y-117689636D02*
X129513220Y-117594398D01*
X129513220Y-117594398D02*
X129513220Y-117499160D01*
X129513220Y-117499160D02*
X129560839Y-117403922D01*
X129560839Y-117403922D02*
X129608458Y-117356303D01*
X129608458Y-117356303D02*
X129703696Y-117308684D01*
X129703696Y-117308684D02*
X129894172Y-117261065D01*
X129894172Y-117261065D02*
X129989410Y-117213446D01*
X129989410Y-117213446D02*
X130037029Y-117165827D01*
X130037029Y-117165827D02*
X130084648Y-117070589D01*
X130084648Y-117070589D02*
X130084648Y-116975351D01*
X130084648Y-116975351D02*
X130037029Y-116880113D01*
X130037029Y-116880113D02*
X129989410Y-116832494D01*
X129989410Y-116832494D02*
X129894172Y-116784875D01*
X129894172Y-116784875D02*
X129656077Y-116784875D01*
X129656077Y-116784875D02*
X129513220Y-116832494D01*
X128941791Y-117784875D02*
X129037029Y-117737256D01*
X129037029Y-117737256D02*
X129084648Y-117689636D01*
X129084648Y-117689636D02*
X129132267Y-117594398D01*
X129132267Y-117594398D02*
X129132267Y-117308684D01*
X129132267Y-117308684D02*
X129084648Y-117213446D01*
X129084648Y-117213446D02*
X129037029Y-117165827D01*
X129037029Y-117165827D02*
X128941791Y-117118208D01*
X128941791Y-117118208D02*
X128798934Y-117118208D01*
X128798934Y-117118208D02*
X128703696Y-117165827D01*
X128703696Y-117165827D02*
X128656077Y-117213446D01*
X128656077Y-117213446D02*
X128608458Y-117308684D01*
X128608458Y-117308684D02*
X128608458Y-117594398D01*
X128608458Y-117594398D02*
X128656077Y-117689636D01*
X128656077Y-117689636D02*
X128703696Y-117737256D01*
X128703696Y-117737256D02*
X128798934Y-117784875D01*
X128798934Y-117784875D02*
X128941791Y-117784875D01*
X127751315Y-117118208D02*
X127751315Y-117784875D01*
X128179886Y-117118208D02*
X128179886Y-117642017D01*
X128179886Y-117642017D02*
X128132267Y-117737256D01*
X128132267Y-117737256D02*
X128037029Y-117784875D01*
X128037029Y-117784875D02*
X127894172Y-117784875D01*
X127894172Y-117784875D02*
X127798934Y-117737256D01*
X127798934Y-117737256D02*
X127751315Y-117689636D01*
X127275124Y-117784875D02*
X127275124Y-117118208D01*
X127275124Y-117308684D02*
X127227505Y-117213446D01*
X127227505Y-117213446D02*
X127179886Y-117165827D01*
X127179886Y-117165827D02*
X127084648Y-117118208D01*
X127084648Y-117118208D02*
X126989410Y-117118208D01*
X126227505Y-117737256D02*
X126322743Y-117784875D01*
X126322743Y-117784875D02*
X126513219Y-117784875D01*
X126513219Y-117784875D02*
X126608457Y-117737256D01*
X126608457Y-117737256D02*
X126656076Y-117689636D01*
X126656076Y-117689636D02*
X126703695Y-117594398D01*
X126703695Y-117594398D02*
X126703695Y-117308684D01*
X126703695Y-117308684D02*
X126656076Y-117213446D01*
X126656076Y-117213446D02*
X126608457Y-117165827D01*
X126608457Y-117165827D02*
X126513219Y-117118208D01*
X126513219Y-117118208D02*
X126322743Y-117118208D01*
X126322743Y-117118208D02*
X126227505Y-117165827D01*
X125417981Y-117737256D02*
X125513219Y-117784875D01*
X125513219Y-117784875D02*
X125703695Y-117784875D01*
X125703695Y-117784875D02*
X125798933Y-117737256D01*
X125798933Y-117737256D02*
X125846552Y-117642017D01*
X125846552Y-117642017D02*
X125846552Y-117261065D01*
X125846552Y-117261065D02*
X125798933Y-117165827D01*
X125798933Y-117165827D02*
X125703695Y-117118208D01*
X125703695Y-117118208D02*
X125513219Y-117118208D01*
X125513219Y-117118208D02*
X125417981Y-117165827D01*
X125417981Y-117165827D02*
X125370362Y-117261065D01*
X125370362Y-117261065D02*
X125370362Y-117356303D01*
X125370362Y-117356303D02*
X125846552Y-117451541D01*
X134656077Y-118394819D02*
X134084649Y-118394819D01*
X134370363Y-119394819D02*
X134370363Y-118394819D01*
X133751315Y-119394819D02*
X133751315Y-118394819D01*
X133322744Y-119394819D02*
X133322744Y-118871009D01*
X133322744Y-118871009D02*
X133370363Y-118775771D01*
X133370363Y-118775771D02*
X133465601Y-118728152D01*
X133465601Y-118728152D02*
X133608458Y-118728152D01*
X133608458Y-118728152D02*
X133703696Y-118775771D01*
X133703696Y-118775771D02*
X133751315Y-118823390D01*
X132417982Y-118728152D02*
X132417982Y-119394819D01*
X132846553Y-118728152D02*
X132846553Y-119251961D01*
X132846553Y-119251961D02*
X132798934Y-119347200D01*
X132798934Y-119347200D02*
X132703696Y-119394819D01*
X132703696Y-119394819D02*
X132560839Y-119394819D01*
X132560839Y-119394819D02*
X132465601Y-119347200D01*
X132465601Y-119347200D02*
X132417982Y-119299580D01*
X131941791Y-118728152D02*
X131941791Y-119394819D01*
X131941791Y-118823390D02*
X131894172Y-118775771D01*
X131894172Y-118775771D02*
X131798934Y-118728152D01*
X131798934Y-118728152D02*
X131656077Y-118728152D01*
X131656077Y-118728152D02*
X131560839Y-118775771D01*
X131560839Y-118775771D02*
X131513220Y-118871009D01*
X131513220Y-118871009D02*
X131513220Y-119394819D01*
X131037029Y-118728152D02*
X131037029Y-119394819D01*
X131037029Y-118823390D02*
X130989410Y-118775771D01*
X130989410Y-118775771D02*
X130894172Y-118728152D01*
X130894172Y-118728152D02*
X130751315Y-118728152D01*
X130751315Y-118728152D02*
X130656077Y-118775771D01*
X130656077Y-118775771D02*
X130608458Y-118871009D01*
X130608458Y-118871009D02*
X130608458Y-119394819D01*
X130132267Y-119394819D02*
X130132267Y-118728152D01*
X130132267Y-118394819D02*
X130179886Y-118442438D01*
X130179886Y-118442438D02*
X130132267Y-118490057D01*
X130132267Y-118490057D02*
X130084648Y-118442438D01*
X130084648Y-118442438D02*
X130132267Y-118394819D01*
X130132267Y-118394819D02*
X130132267Y-118490057D01*
X129798934Y-118728152D02*
X129417982Y-118728152D01*
X129656077Y-119394819D02*
X129656077Y-118537676D01*
X129656077Y-118537676D02*
X129608458Y-118442438D01*
X129608458Y-118442438D02*
X129513220Y-118394819D01*
X129513220Y-118394819D02*
X129417982Y-118394819D01*
X128941791Y-119394819D02*
X129037029Y-119347200D01*
X129037029Y-119347200D02*
X129084648Y-119299580D01*
X129084648Y-119299580D02*
X129132267Y-119204342D01*
X129132267Y-119204342D02*
X129132267Y-118918628D01*
X129132267Y-118918628D02*
X129084648Y-118823390D01*
X129084648Y-118823390D02*
X129037029Y-118775771D01*
X129037029Y-118775771D02*
X128941791Y-118728152D01*
X128941791Y-118728152D02*
X128798934Y-118728152D01*
X128798934Y-118728152D02*
X128703696Y-118775771D01*
X128703696Y-118775771D02*
X128656077Y-118823390D01*
X128656077Y-118823390D02*
X128608458Y-118918628D01*
X128608458Y-118918628D02*
X128608458Y-119204342D01*
X128608458Y-119204342D02*
X128656077Y-119299580D01*
X128656077Y-119299580D02*
X128703696Y-119347200D01*
X128703696Y-119347200D02*
X128798934Y-119394819D01*
X128798934Y-119394819D02*
X128941791Y-119394819D01*
X128179886Y-119394819D02*
X128179886Y-118728152D01*
X128179886Y-118918628D02*
X128132267Y-118823390D01*
X128132267Y-118823390D02*
X128084648Y-118775771D01*
X128084648Y-118775771D02*
X127989410Y-118728152D01*
X127989410Y-118728152D02*
X127894172Y-118728152D01*
X127560838Y-119394819D02*
X127560838Y-118728152D01*
X127560838Y-118823390D02*
X127513219Y-118775771D01*
X127513219Y-118775771D02*
X127417981Y-118728152D01*
X127417981Y-118728152D02*
X127275124Y-118728152D01*
X127275124Y-118728152D02*
X127179886Y-118775771D01*
X127179886Y-118775771D02*
X127132267Y-118871009D01*
X127132267Y-118871009D02*
X127132267Y-119394819D01*
X127132267Y-118871009D02*
X127084648Y-118775771D01*
X127084648Y-118775771D02*
X126989410Y-118728152D01*
X126989410Y-118728152D02*
X126846553Y-118728152D01*
X126846553Y-118728152D02*
X126751314Y-118775771D01*
X126751314Y-118775771D02*
X126703695Y-118871009D01*
X126703695Y-118871009D02*
X126703695Y-119394819D01*
X124894172Y-119394819D02*
X125227505Y-118918628D01*
X125465600Y-119394819D02*
X125465600Y-118394819D01*
X125465600Y-118394819D02*
X125084648Y-118394819D01*
X125084648Y-118394819D02*
X124989410Y-118442438D01*
X124989410Y-118442438D02*
X124941791Y-118490057D01*
X124941791Y-118490057D02*
X124894172Y-118585295D01*
X124894172Y-118585295D02*
X124894172Y-118728152D01*
X124894172Y-118728152D02*
X124941791Y-118823390D01*
X124941791Y-118823390D02*
X124989410Y-118871009D01*
X124989410Y-118871009D02*
X125084648Y-118918628D01*
X125084648Y-118918628D02*
X125465600Y-118918628D01*
X124322743Y-119394819D02*
X124417981Y-119347200D01*
X124417981Y-119347200D02*
X124465600Y-119299580D01*
X124465600Y-119299580D02*
X124513219Y-119204342D01*
X124513219Y-119204342D02*
X124513219Y-118918628D01*
X124513219Y-118918628D02*
X124465600Y-118823390D01*
X124465600Y-118823390D02*
X124417981Y-118775771D01*
X124417981Y-118775771D02*
X124322743Y-118728152D01*
X124322743Y-118728152D02*
X124179886Y-118728152D01*
X124179886Y-118728152D02*
X124084648Y-118775771D01*
X124084648Y-118775771D02*
X124037029Y-118823390D01*
X124037029Y-118823390D02*
X123989410Y-118918628D01*
X123989410Y-118918628D02*
X123989410Y-119204342D01*
X123989410Y-119204342D02*
X124037029Y-119299580D01*
X124037029Y-119299580D02*
X124084648Y-119347200D01*
X124084648Y-119347200D02*
X124179886Y-119394819D01*
X124179886Y-119394819D02*
X124322743Y-119394819D01*
X123560838Y-119394819D02*
X123560838Y-118394819D01*
X123560838Y-118775771D02*
X123465600Y-118728152D01*
X123465600Y-118728152D02*
X123275124Y-118728152D01*
X123275124Y-118728152D02*
X123179886Y-118775771D01*
X123179886Y-118775771D02*
X123132267Y-118823390D01*
X123132267Y-118823390D02*
X123084648Y-118918628D01*
X123084648Y-118918628D02*
X123084648Y-119204342D01*
X123084648Y-119204342D02*
X123132267Y-119299580D01*
X123132267Y-119299580D02*
X123179886Y-119347200D01*
X123179886Y-119347200D02*
X123275124Y-119394819D01*
X123275124Y-119394819D02*
X123465600Y-119394819D01*
X123465600Y-119394819D02*
X123560838Y-119347200D01*
X122513219Y-119394819D02*
X122608457Y-119347200D01*
X122608457Y-119347200D02*
X122656076Y-119299580D01*
X122656076Y-119299580D02*
X122703695Y-119204342D01*
X122703695Y-119204342D02*
X122703695Y-118918628D01*
X122703695Y-118918628D02*
X122656076Y-118823390D01*
X122656076Y-118823390D02*
X122608457Y-118775771D01*
X122608457Y-118775771D02*
X122513219Y-118728152D01*
X122513219Y-118728152D02*
X122370362Y-118728152D01*
X122370362Y-118728152D02*
X122275124Y-118775771D01*
X122275124Y-118775771D02*
X122227505Y-118823390D01*
X122227505Y-118823390D02*
X122179886Y-118918628D01*
X122179886Y-118918628D02*
X122179886Y-119204342D01*
X122179886Y-119204342D02*
X122227505Y-119299580D01*
X122227505Y-119299580D02*
X122275124Y-119347200D01*
X122275124Y-119347200D02*
X122370362Y-119394819D01*
X122370362Y-119394819D02*
X122513219Y-119394819D01*
X121894171Y-118728152D02*
X121513219Y-118728152D01*
X121751314Y-118394819D02*
X121751314Y-119251961D01*
X121751314Y-119251961D02*
X121703695Y-119347200D01*
X121703695Y-119347200D02*
X121608457Y-119394819D01*
X121608457Y-119394819D02*
X121513219Y-119394819D01*
X134513220Y-115394819D02*
X134513220Y-114394819D01*
X134513220Y-114394819D02*
X134179887Y-115109104D01*
X134179887Y-115109104D02*
X133846554Y-114394819D01*
X133846554Y-114394819D02*
X133846554Y-115394819D01*
X133513220Y-114394819D02*
X132941792Y-114394819D01*
X133227506Y-115394819D02*
X133227506Y-114394819D01*
X132608458Y-114394819D02*
X132608458Y-115204342D01*
X132608458Y-115204342D02*
X132560839Y-115299580D01*
X132560839Y-115299580D02*
X132513220Y-115347200D01*
X132513220Y-115347200D02*
X132417982Y-115394819D01*
X132417982Y-115394819D02*
X132227506Y-115394819D01*
X132227506Y-115394819D02*
X132132268Y-115347200D01*
X132132268Y-115347200D02*
X132084649Y-115299580D01*
X132084649Y-115299580D02*
X132037030Y-115204342D01*
X132037030Y-115204342D02*
X132037030Y-114394819D01*
X130608458Y-114394819D02*
X130417982Y-114394819D01*
X130417982Y-114394819D02*
X130322744Y-114442438D01*
X130322744Y-114442438D02*
X130227506Y-114537676D01*
X130227506Y-114537676D02*
X130179887Y-114728152D01*
X130179887Y-114728152D02*
X130179887Y-115061485D01*
X130179887Y-115061485D02*
X130227506Y-115251961D01*
X130227506Y-115251961D02*
X130322744Y-115347200D01*
X130322744Y-115347200D02*
X130417982Y-115394819D01*
X130417982Y-115394819D02*
X130608458Y-115394819D01*
X130608458Y-115394819D02*
X130703696Y-115347200D01*
X130703696Y-115347200D02*
X130798934Y-115251961D01*
X130798934Y-115251961D02*
X130846553Y-115061485D01*
X130846553Y-115061485D02*
X130846553Y-114728152D01*
X130846553Y-114728152D02*
X130798934Y-114537676D01*
X130798934Y-114537676D02*
X130703696Y-114442438D01*
X130703696Y-114442438D02*
X130608458Y-114394819D01*
X129798934Y-115347200D02*
X129656077Y-115394819D01*
X129656077Y-115394819D02*
X129417982Y-115394819D01*
X129417982Y-115394819D02*
X129322744Y-115347200D01*
X129322744Y-115347200D02*
X129275125Y-115299580D01*
X129275125Y-115299580D02*
X129227506Y-115204342D01*
X129227506Y-115204342D02*
X129227506Y-115109104D01*
X129227506Y-115109104D02*
X129275125Y-115013866D01*
X129275125Y-115013866D02*
X129322744Y-114966247D01*
X129322744Y-114966247D02*
X129417982Y-114918628D01*
X129417982Y-114918628D02*
X129608458Y-114871009D01*
X129608458Y-114871009D02*
X129703696Y-114823390D01*
X129703696Y-114823390D02*
X129751315Y-114775771D01*
X129751315Y-114775771D02*
X129798934Y-114680533D01*
X129798934Y-114680533D02*
X129798934Y-114585295D01*
X129798934Y-114585295D02*
X129751315Y-114490057D01*
X129751315Y-114490057D02*
X129703696Y-114442438D01*
X129703696Y-114442438D02*
X129608458Y-114394819D01*
X129608458Y-114394819D02*
X129370363Y-114394819D01*
X129370363Y-114394819D02*
X129227506Y-114442438D01*
X128798934Y-115394819D02*
X128798934Y-114394819D01*
X128798934Y-114871009D02*
X128227506Y-114871009D01*
X128227506Y-115394819D02*
X128227506Y-114394819D01*
X127751315Y-114871009D02*
X127417982Y-114871009D01*
X127275125Y-115394819D02*
X127751315Y-115394819D01*
X127751315Y-115394819D02*
X127751315Y-114394819D01*
X127751315Y-114394819D02*
X127275125Y-114394819D01*
X133941792Y-122494819D02*
X134275125Y-122018628D01*
X134513220Y-122494819D02*
X134513220Y-121494819D01*
X134513220Y-121494819D02*
X134132268Y-121494819D01*
X134132268Y-121494819D02*
X134037030Y-121542438D01*
X134037030Y-121542438D02*
X133989411Y-121590057D01*
X133989411Y-121590057D02*
X133941792Y-121685295D01*
X133941792Y-121685295D02*
X133941792Y-121828152D01*
X133941792Y-121828152D02*
X133989411Y-121923390D01*
X133989411Y-121923390D02*
X134037030Y-121971009D01*
X134037030Y-121971009D02*
X134132268Y-122018628D01*
X134132268Y-122018628D02*
X134513220Y-122018628D01*
X133370363Y-122494819D02*
X133465601Y-122447200D01*
X133465601Y-122447200D02*
X133513220Y-122399580D01*
X133513220Y-122399580D02*
X133560839Y-122304342D01*
X133560839Y-122304342D02*
X133560839Y-122018628D01*
X133560839Y-122018628D02*
X133513220Y-121923390D01*
X133513220Y-121923390D02*
X133465601Y-121875771D01*
X133465601Y-121875771D02*
X133370363Y-121828152D01*
X133370363Y-121828152D02*
X133227506Y-121828152D01*
X133227506Y-121828152D02*
X133132268Y-121875771D01*
X133132268Y-121875771D02*
X133084649Y-121923390D01*
X133084649Y-121923390D02*
X133037030Y-122018628D01*
X133037030Y-122018628D02*
X133037030Y-122304342D01*
X133037030Y-122304342D02*
X133084649Y-122399580D01*
X133084649Y-122399580D02*
X133132268Y-122447200D01*
X133132268Y-122447200D02*
X133227506Y-122494819D01*
X133227506Y-122494819D02*
X133370363Y-122494819D01*
X132608458Y-122494819D02*
X132608458Y-121494819D01*
X132608458Y-121875771D02*
X132513220Y-121828152D01*
X132513220Y-121828152D02*
X132322744Y-121828152D01*
X132322744Y-121828152D02*
X132227506Y-121875771D01*
X132227506Y-121875771D02*
X132179887Y-121923390D01*
X132179887Y-121923390D02*
X132132268Y-122018628D01*
X132132268Y-122018628D02*
X132132268Y-122304342D01*
X132132268Y-122304342D02*
X132179887Y-122399580D01*
X132179887Y-122399580D02*
X132227506Y-122447200D01*
X132227506Y-122447200D02*
X132322744Y-122494819D01*
X132322744Y-122494819D02*
X132513220Y-122494819D01*
X132513220Y-122494819D02*
X132608458Y-122447200D01*
X131560839Y-122494819D02*
X131656077Y-122447200D01*
X131656077Y-122447200D02*
X131703696Y-122399580D01*
X131703696Y-122399580D02*
X131751315Y-122304342D01*
X131751315Y-122304342D02*
X131751315Y-122018628D01*
X131751315Y-122018628D02*
X131703696Y-121923390D01*
X131703696Y-121923390D02*
X131656077Y-121875771D01*
X131656077Y-121875771D02*
X131560839Y-121828152D01*
X131560839Y-121828152D02*
X131417982Y-121828152D01*
X131417982Y-121828152D02*
X131322744Y-121875771D01*
X131322744Y-121875771D02*
X131275125Y-121923390D01*
X131275125Y-121923390D02*
X131227506Y-122018628D01*
X131227506Y-122018628D02*
X131227506Y-122304342D01*
X131227506Y-122304342D02*
X131275125Y-122399580D01*
X131275125Y-122399580D02*
X131322744Y-122447200D01*
X131322744Y-122447200D02*
X131417982Y-122494819D01*
X131417982Y-122494819D02*
X131560839Y-122494819D01*
X130941791Y-121828152D02*
X130560839Y-121828152D01*
X130798934Y-121494819D02*
X130798934Y-122351961D01*
X130798934Y-122351961D02*
X130751315Y-122447200D01*
X130751315Y-122447200D02*
X130656077Y-122494819D01*
X130656077Y-122494819D02*
X130560839Y-122494819D01*
X128894172Y-122399580D02*
X128941791Y-122447200D01*
X128941791Y-122447200D02*
X129084648Y-122494819D01*
X129084648Y-122494819D02*
X129179886Y-122494819D01*
X129179886Y-122494819D02*
X129322743Y-122447200D01*
X129322743Y-122447200D02*
X129417981Y-122351961D01*
X129417981Y-122351961D02*
X129465600Y-122256723D01*
X129465600Y-122256723D02*
X129513219Y-122066247D01*
X129513219Y-122066247D02*
X129513219Y-121923390D01*
X129513219Y-121923390D02*
X129465600Y-121732914D01*
X129465600Y-121732914D02*
X129417981Y-121637676D01*
X129417981Y-121637676D02*
X129322743Y-121542438D01*
X129322743Y-121542438D02*
X129179886Y-121494819D01*
X129179886Y-121494819D02*
X129084648Y-121494819D01*
X129084648Y-121494819D02*
X128941791Y-121542438D01*
X128941791Y-121542438D02*
X128894172Y-121590057D01*
X128322743Y-122494819D02*
X128417981Y-122447200D01*
X128417981Y-122447200D02*
X128465600Y-122399580D01*
X128465600Y-122399580D02*
X128513219Y-122304342D01*
X128513219Y-122304342D02*
X128513219Y-122018628D01*
X128513219Y-122018628D02*
X128465600Y-121923390D01*
X128465600Y-121923390D02*
X128417981Y-121875771D01*
X128417981Y-121875771D02*
X128322743Y-121828152D01*
X128322743Y-121828152D02*
X128179886Y-121828152D01*
X128179886Y-121828152D02*
X128084648Y-121875771D01*
X128084648Y-121875771D02*
X128037029Y-121923390D01*
X128037029Y-121923390D02*
X127989410Y-122018628D01*
X127989410Y-122018628D02*
X127989410Y-122304342D01*
X127989410Y-122304342D02*
X128037029Y-122399580D01*
X128037029Y-122399580D02*
X128084648Y-122447200D01*
X128084648Y-122447200D02*
X128179886Y-122494819D01*
X128179886Y-122494819D02*
X128322743Y-122494819D01*
X127560838Y-121828152D02*
X127560838Y-122494819D01*
X127560838Y-121923390D02*
X127513219Y-121875771D01*
X127513219Y-121875771D02*
X127417981Y-121828152D01*
X127417981Y-121828152D02*
X127275124Y-121828152D01*
X127275124Y-121828152D02*
X127179886Y-121875771D01*
X127179886Y-121875771D02*
X127132267Y-121971009D01*
X127132267Y-121971009D02*
X127132267Y-122494819D01*
X126798933Y-121828152D02*
X126417981Y-121828152D01*
X126656076Y-121494819D02*
X126656076Y-122351961D01*
X126656076Y-122351961D02*
X126608457Y-122447200D01*
X126608457Y-122447200D02*
X126513219Y-122494819D01*
X126513219Y-122494819D02*
X126417981Y-122494819D01*
X126084647Y-122494819D02*
X126084647Y-121828152D01*
X126084647Y-122018628D02*
X126037028Y-121923390D01*
X126037028Y-121923390D02*
X125989409Y-121875771D01*
X125989409Y-121875771D02*
X125894171Y-121828152D01*
X125894171Y-121828152D02*
X125798933Y-121828152D01*
X125322742Y-122494819D02*
X125417980Y-122447200D01*
X125417980Y-122447200D02*
X125465599Y-122399580D01*
X125465599Y-122399580D02*
X125513218Y-122304342D01*
X125513218Y-122304342D02*
X125513218Y-122018628D01*
X125513218Y-122018628D02*
X125465599Y-121923390D01*
X125465599Y-121923390D02*
X125417980Y-121875771D01*
X125417980Y-121875771D02*
X125322742Y-121828152D01*
X125322742Y-121828152D02*
X125179885Y-121828152D01*
X125179885Y-121828152D02*
X125084647Y-121875771D01*
X125084647Y-121875771D02*
X125037028Y-121923390D01*
X125037028Y-121923390D02*
X124989409Y-122018628D01*
X124989409Y-122018628D02*
X124989409Y-122304342D01*
X124989409Y-122304342D02*
X125037028Y-122399580D01*
X125037028Y-122399580D02*
X125084647Y-122447200D01*
X125084647Y-122447200D02*
X125179885Y-122494819D01*
X125179885Y-122494819D02*
X125322742Y-122494819D01*
X124417980Y-122494819D02*
X124513218Y-122447200D01*
X124513218Y-122447200D02*
X124560837Y-122351961D01*
X124560837Y-122351961D02*
X124560837Y-121494819D01*
X123894170Y-122494819D02*
X123989408Y-122447200D01*
X123989408Y-122447200D02*
X124037027Y-122351961D01*
X124037027Y-122351961D02*
X124037027Y-121494819D01*
X123132265Y-122447200D02*
X123227503Y-122494819D01*
X123227503Y-122494819D02*
X123417979Y-122494819D01*
X123417979Y-122494819D02*
X123513217Y-122447200D01*
X123513217Y-122447200D02*
X123560836Y-122351961D01*
X123560836Y-122351961D02*
X123560836Y-121971009D01*
X123560836Y-121971009D02*
X123513217Y-121875771D01*
X123513217Y-121875771D02*
X123417979Y-121828152D01*
X123417979Y-121828152D02*
X123227503Y-121828152D01*
X123227503Y-121828152D02*
X123132265Y-121875771D01*
X123132265Y-121875771D02*
X123084646Y-121971009D01*
X123084646Y-121971009D02*
X123084646Y-122066247D01*
X123084646Y-122066247D02*
X123560836Y-122161485D01*
X122656074Y-122494819D02*
X122656074Y-121828152D01*
X122656074Y-122018628D02*
X122608455Y-121923390D01*
X122608455Y-121923390D02*
X122560836Y-121875771D01*
X122560836Y-121875771D02*
X122465598Y-121828152D01*
X122465598Y-121828152D02*
X122370360Y-121828152D01*
X81204819Y-89391666D02*
X81919104Y-89391666D01*
X81919104Y-89391666D02*
X82061961Y-89344047D01*
X82061961Y-89344047D02*
X82157200Y-89248809D01*
X82157200Y-89248809D02*
X82204819Y-89105952D01*
X82204819Y-89105952D02*
X82204819Y-89010714D01*
X82204819Y-90391666D02*
X82204819Y-89820238D01*
X82204819Y-90105952D02*
X81204819Y-90105952D01*
X81204819Y-90105952D02*
X81347676Y-90010714D01*
X81347676Y-90010714D02*
X81442914Y-89915476D01*
X81442914Y-89915476D02*
X81490533Y-89820238D01*
X90004819Y-117191666D02*
X90719104Y-117191666D01*
X90719104Y-117191666D02*
X90861961Y-117144047D01*
X90861961Y-117144047D02*
X90957200Y-117048809D01*
X90957200Y-117048809D02*
X91004819Y-116905952D01*
X91004819Y-116905952D02*
X91004819Y-116810714D01*
X91004819Y-117667857D02*
X90004819Y-117667857D01*
X90004819Y-117667857D02*
X90004819Y-118048809D01*
X90004819Y-118048809D02*
X90052438Y-118144047D01*
X90052438Y-118144047D02*
X90100057Y-118191666D01*
X90100057Y-118191666D02*
X90195295Y-118239285D01*
X90195295Y-118239285D02*
X90338152Y-118239285D01*
X90338152Y-118239285D02*
X90433390Y-118191666D01*
X90433390Y-118191666D02*
X90481009Y-118144047D01*
X90481009Y-118144047D02*
X90528628Y-118048809D01*
X90528628Y-118048809D02*
X90528628Y-117667857D01*
X90004819Y-118572619D02*
X90004819Y-119191666D01*
X90004819Y-119191666D02*
X90385771Y-118858333D01*
X90385771Y-118858333D02*
X90385771Y-119001190D01*
X90385771Y-119001190D02*
X90433390Y-119096428D01*
X90433390Y-119096428D02*
X90481009Y-119144047D01*
X90481009Y-119144047D02*
X90576247Y-119191666D01*
X90576247Y-119191666D02*
X90814342Y-119191666D01*
X90814342Y-119191666D02*
X90909580Y-119144047D01*
X90909580Y-119144047D02*
X90957200Y-119096428D01*
X90957200Y-119096428D02*
X91004819Y-119001190D01*
X91004819Y-119001190D02*
X91004819Y-118715476D01*
X91004819Y-118715476D02*
X90957200Y-118620238D01*
X90957200Y-118620238D02*
X90909580Y-118572619D01*
X131733333Y-101964819D02*
X131733333Y-102679104D01*
X131733333Y-102679104D02*
X131780952Y-102821961D01*
X131780952Y-102821961D02*
X131876190Y-102917200D01*
X131876190Y-102917200D02*
X132019047Y-102964819D01*
X132019047Y-102964819D02*
X132114285Y-102964819D01*
X131257142Y-102964819D02*
X131257142Y-101964819D01*
X131257142Y-101964819D02*
X130876190Y-101964819D01*
X130876190Y-101964819D02*
X130780952Y-102012438D01*
X130780952Y-102012438D02*
X130733333Y-102060057D01*
X130733333Y-102060057D02*
X130685714Y-102155295D01*
X130685714Y-102155295D02*
X130685714Y-102298152D01*
X130685714Y-102298152D02*
X130733333Y-102393390D01*
X130733333Y-102393390D02*
X130780952Y-102441009D01*
X130780952Y-102441009D02*
X130876190Y-102488628D01*
X130876190Y-102488628D02*
X131257142Y-102488628D01*
X129828571Y-102298152D02*
X129828571Y-102964819D01*
X130066666Y-101917200D02*
X130304761Y-102631485D01*
X130304761Y-102631485D02*
X129685714Y-102631485D01*
X115606153Y-127938559D02*
X116320438Y-127938559D01*
X116320438Y-127938559D02*
X116463295Y-127890940D01*
X116463295Y-127890940D02*
X116558534Y-127795702D01*
X116558534Y-127795702D02*
X116606153Y-127652845D01*
X116606153Y-127652845D02*
X116606153Y-127557607D01*
X116606153Y-128414750D02*
X115606153Y-128414750D01*
X115606153Y-128414750D02*
X115606153Y-128795702D01*
X115606153Y-128795702D02*
X115653772Y-128890940D01*
X115653772Y-128890940D02*
X115701391Y-128938559D01*
X115701391Y-128938559D02*
X115796629Y-128986178D01*
X115796629Y-128986178D02*
X115939486Y-128986178D01*
X115939486Y-128986178D02*
X116034724Y-128938559D01*
X116034724Y-128938559D02*
X116082343Y-128890940D01*
X116082343Y-128890940D02*
X116129962Y-128795702D01*
X116129962Y-128795702D02*
X116129962Y-128414750D01*
X115606153Y-129843321D02*
X115606153Y-129652845D01*
X115606153Y-129652845D02*
X115653772Y-129557607D01*
X115653772Y-129557607D02*
X115701391Y-129509988D01*
X115701391Y-129509988D02*
X115844248Y-129414750D01*
X115844248Y-129414750D02*
X116034724Y-129367131D01*
X116034724Y-129367131D02*
X116415676Y-129367131D01*
X116415676Y-129367131D02*
X116510914Y-129414750D01*
X116510914Y-129414750D02*
X116558534Y-129462369D01*
X116558534Y-129462369D02*
X116606153Y-129557607D01*
X116606153Y-129557607D02*
X116606153Y-129748083D01*
X116606153Y-129748083D02*
X116558534Y-129843321D01*
X116558534Y-129843321D02*
X116510914Y-129890940D01*
X116510914Y-129890940D02*
X116415676Y-129938559D01*
X116415676Y-129938559D02*
X116177581Y-129938559D01*
X116177581Y-129938559D02*
X116082343Y-129890940D01*
X116082343Y-129890940D02*
X116034724Y-129843321D01*
X116034724Y-129843321D02*
X115987105Y-129748083D01*
X115987105Y-129748083D02*
X115987105Y-129557607D01*
X115987105Y-129557607D02*
X116034724Y-129462369D01*
X116034724Y-129462369D02*
X116082343Y-129414750D01*
X116082343Y-129414750D02*
X116177581Y-129367131D01*
X131783333Y-108379819D02*
X131783333Y-109094104D01*
X131783333Y-109094104D02*
X131830952Y-109236961D01*
X131830952Y-109236961D02*
X131926190Y-109332200D01*
X131926190Y-109332200D02*
X132069047Y-109379819D01*
X132069047Y-109379819D02*
X132164285Y-109379819D01*
X131307142Y-109379819D02*
X131307142Y-108379819D01*
X131307142Y-108379819D02*
X130926190Y-108379819D01*
X130926190Y-108379819D02*
X130830952Y-108427438D01*
X130830952Y-108427438D02*
X130783333Y-108475057D01*
X130783333Y-108475057D02*
X130735714Y-108570295D01*
X130735714Y-108570295D02*
X130735714Y-108713152D01*
X130735714Y-108713152D02*
X130783333Y-108808390D01*
X130783333Y-108808390D02*
X130830952Y-108856009D01*
X130830952Y-108856009D02*
X130926190Y-108903628D01*
X130926190Y-108903628D02*
X131307142Y-108903628D01*
X129830952Y-108379819D02*
X130307142Y-108379819D01*
X130307142Y-108379819D02*
X130354761Y-108856009D01*
X130354761Y-108856009D02*
X130307142Y-108808390D01*
X130307142Y-108808390D02*
X130211904Y-108760771D01*
X130211904Y-108760771D02*
X129973809Y-108760771D01*
X129973809Y-108760771D02*
X129878571Y-108808390D01*
X129878571Y-108808390D02*
X129830952Y-108856009D01*
X129830952Y-108856009D02*
X129783333Y-108951247D01*
X129783333Y-108951247D02*
X129783333Y-109189342D01*
X129783333Y-109189342D02*
X129830952Y-109284580D01*
X129830952Y-109284580D02*
X129878571Y-109332200D01*
X129878571Y-109332200D02*
X129973809Y-109379819D01*
X129973809Y-109379819D02*
X130211904Y-109379819D01*
X130211904Y-109379819D02*
X130307142Y-109332200D01*
X130307142Y-109332200D02*
X130354761Y-109284580D01*
X98604819Y-127891666D02*
X99319104Y-127891666D01*
X99319104Y-127891666D02*
X99461961Y-127844047D01*
X99461961Y-127844047D02*
X99557200Y-127748809D01*
X99557200Y-127748809D02*
X99604819Y-127605952D01*
X99604819Y-127605952D02*
X99604819Y-127510714D01*
X99604819Y-128367857D02*
X98604819Y-128367857D01*
X98604819Y-128367857D02*
X98604819Y-128748809D01*
X98604819Y-128748809D02*
X98652438Y-128844047D01*
X98652438Y-128844047D02*
X98700057Y-128891666D01*
X98700057Y-128891666D02*
X98795295Y-128939285D01*
X98795295Y-128939285D02*
X98938152Y-128939285D01*
X98938152Y-128939285D02*
X99033390Y-128891666D01*
X99033390Y-128891666D02*
X99081009Y-128844047D01*
X99081009Y-128844047D02*
X99128628Y-128748809D01*
X99128628Y-128748809D02*
X99128628Y-128367857D01*
X98604819Y-129272619D02*
X98604819Y-129939285D01*
X98604819Y-129939285D02*
X99604819Y-129510714D01*
X96404819Y-117091666D02*
X97119104Y-117091666D01*
X97119104Y-117091666D02*
X97261961Y-117044047D01*
X97261961Y-117044047D02*
X97357200Y-116948809D01*
X97357200Y-116948809D02*
X97404819Y-116805952D01*
X97404819Y-116805952D02*
X97404819Y-116710714D01*
X97404819Y-117567857D02*
X96404819Y-117567857D01*
X96404819Y-117567857D02*
X96404819Y-117948809D01*
X96404819Y-117948809D02*
X96452438Y-118044047D01*
X96452438Y-118044047D02*
X96500057Y-118091666D01*
X96500057Y-118091666D02*
X96595295Y-118139285D01*
X96595295Y-118139285D02*
X96738152Y-118139285D01*
X96738152Y-118139285D02*
X96833390Y-118091666D01*
X96833390Y-118091666D02*
X96881009Y-118044047D01*
X96881009Y-118044047D02*
X96928628Y-117948809D01*
X96928628Y-117948809D02*
X96928628Y-117567857D01*
X96500057Y-118520238D02*
X96452438Y-118567857D01*
X96452438Y-118567857D02*
X96404819Y-118663095D01*
X96404819Y-118663095D02*
X96404819Y-118901190D01*
X96404819Y-118901190D02*
X96452438Y-118996428D01*
X96452438Y-118996428D02*
X96500057Y-119044047D01*
X96500057Y-119044047D02*
X96595295Y-119091666D01*
X96595295Y-119091666D02*
X96690533Y-119091666D01*
X96690533Y-119091666D02*
X96833390Y-119044047D01*
X96833390Y-119044047D02*
X97404819Y-118472619D01*
X97404819Y-118472619D02*
X97404819Y-119091666D01*
D11*
X83190000Y-87125000D02*
X83190000Y-89725000D01*
X83190000Y-87125000D02*
X134110000Y-87125000D01*
X83190000Y-89725000D02*
X85790000Y-89725000D01*
X83190000Y-90995000D02*
X83190000Y-92325000D01*
X83190000Y-92325000D02*
X84520000Y-92325000D01*
X85790000Y-89725000D02*
X85790000Y-92325000D01*
X85790000Y-92325000D02*
X134110000Y-92325000D01*
X134110000Y-87125000D02*
X134110000Y-92325000D01*
X91350000Y-115975000D02*
X91350000Y-120075000D01*
X91350000Y-120075000D02*
X93350000Y-120075000D01*
X93350000Y-115975000D02*
X91350000Y-115975000D01*
X93350000Y-120075000D02*
X93350000Y-115975000D01*
X93550000Y-116725000D02*
X93850000Y-116425000D01*
X93550000Y-116725000D02*
X93850000Y-117025000D01*
X93850000Y-116425000D02*
X93850000Y-117025000D01*
X128850000Y-103310000D02*
X128850000Y-105310000D01*
X128850000Y-105310000D02*
X132950000Y-105310000D01*
X132200000Y-105510000D02*
X131900000Y-105810000D01*
X132200000Y-105510000D02*
X132500000Y-105810000D01*
X132500000Y-105810000D02*
X131900000Y-105810000D01*
X132950000Y-103310000D02*
X128850000Y-103310000D01*
X132950000Y-105310000D02*
X132950000Y-103310000D01*
X112851334Y-130371893D02*
X112851334Y-129771893D01*
X113151334Y-130071893D02*
X112851334Y-129771893D01*
X113151334Y-130071893D02*
X112851334Y-130371893D01*
X113351334Y-126721893D02*
X113351334Y-130821893D01*
X113351334Y-130821893D02*
X115351334Y-130821893D01*
X115351334Y-126721893D02*
X113351334Y-126721893D01*
X115351334Y-130821893D02*
X115351334Y-126721893D01*
X128850000Y-105882500D02*
X128850000Y-107882500D01*
X128850000Y-107882500D02*
X132950000Y-107882500D01*
X132200000Y-108082500D02*
X131900000Y-108382500D01*
X132200000Y-108082500D02*
X132500000Y-108382500D01*
X132500000Y-108382500D02*
X131900000Y-108382500D01*
X132950000Y-105882500D02*
X128850000Y-105882500D01*
X132950000Y-107882500D02*
X132950000Y-105882500D01*
X95850000Y-130325000D02*
X95850000Y-129725000D01*
X96150000Y-130025000D02*
X95850000Y-129725000D01*
X96150000Y-130025000D02*
X95850000Y-130325000D01*
X96350000Y-126675000D02*
X96350000Y-130775000D01*
X96350000Y-130775000D02*
X98350000Y-130775000D01*
X98350000Y-126675000D02*
X96350000Y-126675000D01*
X98350000Y-130775000D02*
X98350000Y-126675000D01*
X93900000Y-115925000D02*
X93900000Y-120025000D01*
X93900000Y-120025000D02*
X95900000Y-120025000D01*
X95900000Y-115925000D02*
X93900000Y-115925000D01*
X95900000Y-120025000D02*
X95900000Y-115925000D01*
X96100000Y-116675000D02*
X96400000Y-116375000D01*
X96100000Y-116675000D02*
X96400000Y-116975000D01*
X96400000Y-116375000D02*
X96400000Y-116975000D01*
%LPC*%
D12*
X107018000Y-108725000D03*
D13*
X107018000Y-106185000D03*
D14*
X79650000Y-96505000D03*
D15*
X79650000Y-99045000D03*
X79650000Y-101585000D03*
D16*
X137650000Y-89725000D03*
D12*
X107018000Y-119647000D03*
D13*
X107018000Y-122187000D03*
D14*
X106935000Y-138771893D03*
D15*
X109475000Y-138771893D03*
X112015000Y-138771893D03*
X114555000Y-138771893D03*
D17*
X140190000Y-110480000D03*
X140190000Y-107940000D03*
D14*
X137650000Y-110480000D03*
D15*
X137650000Y-107940000D03*
D17*
X140190000Y-125720000D03*
X140190000Y-123180000D03*
D14*
X137650000Y-125720000D03*
D15*
X137650000Y-123180000D03*
D12*
X95200000Y-102840000D03*
D13*
X95200000Y-100300000D03*
X95200000Y-97760000D03*
D12*
X90120000Y-102845000D03*
D13*
X90120000Y-100305000D03*
X90120000Y-97765000D03*
X90120000Y-95225000D03*
D12*
X123140000Y-97775000D03*
D13*
X125680000Y-97775000D03*
X128220000Y-97775000D03*
X130760000Y-97775000D03*
D12*
X83650000Y-119647000D03*
D13*
X83650000Y-122187000D03*
D14*
X90535000Y-138679000D03*
D15*
X93075000Y-138679000D03*
X95615000Y-138679000D03*
X98155000Y-138679000D03*
D17*
X140190000Y-118095000D03*
X140190000Y-115555000D03*
D14*
X137650000Y-118095000D03*
D15*
X137650000Y-115555000D03*
D12*
X107900000Y-100300000D03*
D13*
X107900000Y-97760000D03*
X107900000Y-95220000D03*
D12*
X115520000Y-95235000D03*
D13*
X118060000Y-95235000D03*
X115520000Y-97775000D03*
X118060000Y-97775000D03*
X115520000Y-100315000D03*
X118060000Y-100315000D03*
D17*
X140190000Y-133340000D03*
X140190000Y-130800000D03*
D14*
X137650000Y-133340000D03*
D15*
X137650000Y-130800000D03*
D16*
X79650000Y-138725000D03*
X79650000Y-89725000D03*
D18*
X92915000Y-129925998D03*
X92915000Y-130875998D03*
X92915000Y-131825999D03*
X92915000Y-132776000D03*
X92915000Y-133726000D03*
X94265000Y-129925998D03*
X94265000Y-130875998D03*
X94265000Y-131825999D03*
X94265000Y-132776000D03*
X94265000Y-133726000D03*
X95615000Y-129925998D03*
X95615000Y-130875998D03*
X95615000Y-131825999D03*
X95615000Y-132776000D03*
X95615000Y-133726000D03*
D12*
X112650000Y-107185000D03*
D13*
X112650000Y-109725000D03*
X112650000Y-112265000D03*
X112650000Y-114805000D03*
D12*
X112985000Y-95235000D03*
D13*
X112985000Y-97775000D03*
X112985000Y-100315000D03*
D19*
X80945000Y-127430000D03*
D20*
X80945000Y-132510000D03*
D12*
X83650000Y-108725000D03*
D13*
X83650000Y-106185000D03*
D16*
X137650000Y-138725000D03*
D12*
X123140000Y-95235000D03*
D13*
X125680000Y-95235000D03*
X128220000Y-95235000D03*
X130760000Y-95235000D03*
D12*
X92660000Y-102840000D03*
D13*
X92660000Y-100300000D03*
X92660000Y-97760000D03*
D18*
X110008334Y-130019891D03*
X110008334Y-130969891D03*
X110008334Y-131919892D03*
X110008334Y-132869893D03*
X110008334Y-133819893D03*
X111358334Y-130019891D03*
X111358334Y-130969891D03*
X111358334Y-131919892D03*
X111358334Y-132869893D03*
X111358334Y-133819893D03*
X112708334Y-130019891D03*
X112708334Y-130969891D03*
X112708334Y-131919892D03*
X112708334Y-132869893D03*
X112708334Y-133819893D03*
D12*
X105355000Y-100300000D03*
D13*
X105355000Y-97760000D03*
X105355000Y-95220000D03*
D12*
X84520000Y-90995000D03*
D13*
X84520000Y-88455000D03*
X87060000Y-90995000D03*
X87060000Y-88455000D03*
X89600000Y-90995000D03*
X89600000Y-88455000D03*
X92140000Y-90995000D03*
X92140000Y-88455000D03*
X94680000Y-90995000D03*
X94680000Y-88455000D03*
X97220000Y-90995000D03*
X97220000Y-88455000D03*
X99760000Y-90995000D03*
X99760000Y-88455000D03*
X102300000Y-90995000D03*
X102300000Y-88455000D03*
X104840000Y-90995000D03*
X104840000Y-88455000D03*
X107380000Y-90995000D03*
X107380000Y-88455000D03*
X109920000Y-90995000D03*
X109920000Y-88455000D03*
X112460000Y-90995000D03*
X112460000Y-88455000D03*
X115000000Y-90995000D03*
X115000000Y-88455000D03*
X117540000Y-90995000D03*
X117540000Y-88455000D03*
X120080000Y-90995000D03*
X120080000Y-88455000D03*
X122620000Y-90995000D03*
X122620000Y-88455000D03*
X125160000Y-90995000D03*
X125160000Y-88455000D03*
X127700000Y-90995000D03*
X127700000Y-88455000D03*
X130240000Y-90995000D03*
X130240000Y-88455000D03*
X132780000Y-90995000D03*
X132780000Y-88455000D03*
D21*
X92350000Y-116725000D03*
X92350000Y-118025000D03*
X92350000Y-119325000D03*
D22*
X132200000Y-104310000D03*
X130900000Y-104310000D03*
X129600000Y-104310000D03*
D21*
X114351334Y-130071893D03*
X114351334Y-128771893D03*
X114351334Y-127471893D03*
D22*
X132200000Y-106882500D03*
X130900000Y-106882500D03*
X129600000Y-106882500D03*
D21*
X97350000Y-130025000D03*
X97350000Y-128725000D03*
X97350000Y-127425000D03*
X94900000Y-116675000D03*
X94900000Y-117975000D03*
X94900000Y-119275000D03*
%LPD*%
M02*
