%TF.GenerationSoftware,KiCad,Pcbnew,9.0.0*%
%TF.CreationDate,2025-04-25T21:38:16-04:00*%
%TF.ProjectId,OSTR_hat,4f535452-5f68-4617-942e-6b696361645f,2b*%
%TF.SameCoordinates,Original*%
%TF.FileFunction,Soldermask,Top*%
%TF.FilePolarity,Negative*%
%FSLAX46Y46*%
G04 Gerber Fmt 4.6, Leading zero omitted, Abs format (unit mm)*
G04 Created by KiCad (PCBNEW 9.0.0) date 2025-04-25 21:38:16*
%MOMM*%
%LPD*%
G01*
G04 APERTURE LIST*
G04 Aperture macros list*
%AMRoundRect*
0 Rectangle with rounded corners*
0 $1 Rounding radius*
0 $2 $3 $4 $5 $6 $7 $8 $9 X,Y pos of 4 corners*
0 Add a 4 corners polygon primitive as box body*
4,1,4,$2,$3,$4,$5,$6,$7,$8,$9,$2,$3,0*
0 Add four circle primitives for the rounded corners*
1,1,$1+$1,$2,$3*
1,1,$1+$1,$4,$5*
1,1,$1+$1,$6,$7*
1,1,$1+$1,$8,$9*
0 Add four rect primitives between the rounded corners*
20,1,$1+$1,$2,$3,$4,$5,0*
20,1,$1+$1,$4,$5,$6,$7,0*
20,1,$1+$1,$6,$7,$8,$9,0*
20,1,$1+$1,$8,$9,$2,$3,0*%
G04 Aperture macros list end*
%ADD10C,0.000000*%
%ADD11RoundRect,0.200000X-0.200000X-0.275000X0.200000X-0.275000X0.200000X0.275000X-0.200000X0.275000X0*%
%ADD12R,1.700000X1.700000*%
%ADD13O,1.700000X1.700000*%
%ADD14R,2.200000X2.200000*%
%ADD15C,2.200000*%
%ADD16C,2.700000*%
%ADD17RoundRect,0.225000X0.225000X0.250000X-0.225000X0.250000X-0.225000X-0.250000X0.225000X-0.250000X0*%
%ADD18RoundRect,0.200000X-0.275000X0.200000X-0.275000X-0.200000X0.275000X-0.200000X0.275000X0.200000X0*%
%ADD19C,1.100000*%
%ADD20RoundRect,0.200000X0.275000X-0.200000X0.275000X0.200000X-0.275000X0.200000X-0.275000X-0.200000X0*%
%ADD21RoundRect,0.225000X-0.250000X0.225000X-0.250000X-0.225000X0.250000X-0.225000X0.250000X0.225000X0*%
%ADD22RoundRect,0.225000X0.250000X-0.225000X0.250000X0.225000X-0.250000X0.225000X-0.250000X-0.225000X0*%
%ADD23RoundRect,0.225000X-0.225000X-0.250000X0.225000X-0.250000X0.225000X0.250000X-0.225000X0.250000X0*%
%ADD24RoundRect,0.100000X0.100000X-0.637500X0.100000X0.637500X-0.100000X0.637500X-0.100000X-0.637500X0*%
%ADD25R,1.000000X1.500000*%
%ADD26RoundRect,0.200000X0.200000X0.275000X-0.200000X0.275000X-0.200000X-0.275000X0.200000X-0.275000X0*%
%ADD27RoundRect,0.100000X-0.637500X-0.100000X0.637500X-0.100000X0.637500X0.100000X-0.637500X0.100000X0*%
%ADD28R,1.599999X0.449999*%
%ADD29C,0.499999*%
%ADD30R,3.400001X5.000000*%
%ADD31R,2.600000X2.600000*%
%ADD32C,2.600000*%
%ADD33RoundRect,0.102000X0.279400X-0.990600X0.279400X0.990600X-0.279400X0.990600X-0.279400X-0.990600X0*%
%ADD34RoundRect,0.150000X0.150000X-0.825000X0.150000X0.825000X-0.150000X0.825000X-0.150000X-0.825000X0*%
G04 APERTURE END LIST*
D10*
G36*
X95455399Y-130051944D02*
G01*
X95464629Y-130054743D01*
X95473133Y-130059289D01*
X95480591Y-130065408D01*
X95486710Y-130072866D01*
X95491256Y-130081370D01*
X95494055Y-130090600D01*
X95495000Y-130100199D01*
X95495000Y-133551799D01*
X95494055Y-133561398D01*
X95491256Y-133570628D01*
X95486710Y-133579132D01*
X95480591Y-133586590D01*
X95473133Y-133592709D01*
X95464629Y-133597255D01*
X95455399Y-133600054D01*
X95445800Y-133600999D01*
X93084200Y-133600999D01*
X93074601Y-133600054D01*
X93065371Y-133597255D01*
X93056867Y-133592709D01*
X93049409Y-133586590D01*
X93043290Y-133579132D01*
X93038744Y-133570628D01*
X93035945Y-133561398D01*
X93035000Y-133551799D01*
X93035000Y-130100199D01*
X93035945Y-130090600D01*
X93038744Y-130081370D01*
X93043290Y-130072866D01*
X93049409Y-130065408D01*
X93056867Y-130059289D01*
X93065371Y-130054743D01*
X93074601Y-130051944D01*
X93084200Y-130050999D01*
X95445800Y-130050999D01*
X95455399Y-130051944D01*
G37*
G36*
X112548733Y-130145837D02*
G01*
X112557963Y-130148636D01*
X112566467Y-130153182D01*
X112573925Y-130159301D01*
X112580044Y-130166759D01*
X112584590Y-130175263D01*
X112587389Y-130184493D01*
X112588334Y-130194092D01*
X112588334Y-133645692D01*
X112587389Y-133655291D01*
X112584590Y-133664521D01*
X112580044Y-133673025D01*
X112573925Y-133680483D01*
X112566467Y-133686602D01*
X112557963Y-133691148D01*
X112548733Y-133693947D01*
X112539134Y-133694892D01*
X110177534Y-133694892D01*
X110167935Y-133693947D01*
X110158705Y-133691148D01*
X110150201Y-133686602D01*
X110142743Y-133680483D01*
X110136624Y-133673025D01*
X110132078Y-133664521D01*
X110129279Y-133655291D01*
X110128334Y-133645692D01*
X110128334Y-130194092D01*
X110129279Y-130184493D01*
X110132078Y-130175263D01*
X110136624Y-130166759D01*
X110142743Y-130159301D01*
X110150201Y-130153182D01*
X110158705Y-130148636D01*
X110167935Y-130145837D01*
X110177534Y-130144892D01*
X112539134Y-130144892D01*
X112548733Y-130145837D01*
G37*
D11*
X124325000Y-110475000D03*
X125975000Y-110475000D03*
D12*
X107018000Y-108725000D03*
D13*
X107018000Y-106185000D03*
D14*
X79650000Y-96505000D03*
D15*
X79650000Y-99045000D03*
X79650000Y-101585000D03*
D16*
X137650000Y-89725000D03*
D17*
X118525000Y-131925000D03*
X116975000Y-131925000D03*
D18*
X131650000Y-127500000D03*
X131650000Y-129150000D03*
D11*
X85485000Y-97725000D03*
X87135000Y-97725000D03*
D12*
X107018000Y-119647000D03*
D13*
X107018000Y-122187000D03*
D14*
X106935000Y-138771893D03*
D15*
X109475000Y-138771893D03*
X112015000Y-138771893D03*
X114555000Y-138771893D03*
D19*
X140190000Y-110480000D03*
X140190000Y-107940000D03*
D14*
X137650000Y-110480000D03*
D15*
X137650000Y-107940000D03*
D20*
X127150000Y-127550000D03*
X127150000Y-125900000D03*
D21*
X90820000Y-112700000D03*
X90820000Y-114250000D03*
D22*
X128650000Y-114250000D03*
X128650000Y-112700000D03*
D19*
X140190000Y-125720000D03*
X140190000Y-123180000D03*
D14*
X137650000Y-125720000D03*
D15*
X137650000Y-123180000D03*
D11*
X136725000Y-98425000D03*
X138375000Y-98425000D03*
D12*
X95200000Y-102840000D03*
D13*
X95200000Y-100300000D03*
X95200000Y-97760000D03*
D12*
X90120000Y-102845000D03*
D13*
X90120000Y-100305000D03*
X90120000Y-97765000D03*
X90120000Y-95225000D03*
D12*
X123140000Y-97775000D03*
D13*
X125680000Y-97775000D03*
X128220000Y-97775000D03*
X130760000Y-97775000D03*
D12*
X83650000Y-119647000D03*
D13*
X83650000Y-122187000D03*
D23*
X97975000Y-95025000D03*
X99525000Y-95025000D03*
D18*
X105750000Y-129950000D03*
X105750000Y-131600000D03*
D24*
X92975000Y-119337500D03*
X93625000Y-119337500D03*
X94275000Y-119337500D03*
X94925000Y-119337500D03*
X95575000Y-119337500D03*
X96225000Y-119337500D03*
X96875000Y-119337500D03*
X97525000Y-119337500D03*
X98175000Y-119337500D03*
X98825000Y-119337500D03*
X98825000Y-113612500D03*
X98175000Y-113612500D03*
X97525000Y-113612500D03*
X96875000Y-113612500D03*
X96225000Y-113612500D03*
X95575000Y-113612500D03*
X94925000Y-113612500D03*
X94275000Y-113612500D03*
X93625000Y-113612500D03*
X92975000Y-113612500D03*
D22*
X116950000Y-130450000D03*
X116950000Y-128900000D03*
D14*
X90535000Y-138679000D03*
D15*
X93075000Y-138679000D03*
X95615000Y-138679000D03*
X98155000Y-138679000D03*
D18*
X88450000Y-129850000D03*
X88450000Y-131500000D03*
X85421000Y-100506000D03*
X85421000Y-102156000D03*
D19*
X140190000Y-118095000D03*
X140190000Y-115555000D03*
D14*
X137650000Y-118095000D03*
D15*
X137650000Y-115555000D03*
D21*
X125650000Y-116950000D03*
X125650000Y-118500000D03*
X102600000Y-134700000D03*
X102600000Y-136250000D03*
D22*
X99455002Y-131304001D03*
X99455002Y-129754001D03*
D12*
X107900000Y-100300000D03*
D13*
X107900000Y-97760000D03*
X107900000Y-95220000D03*
D20*
X130150000Y-114300000D03*
X130150000Y-112650000D03*
D18*
X101150000Y-96150000D03*
X101150000Y-97800000D03*
D12*
X115520000Y-95235000D03*
D13*
X118060000Y-95235000D03*
X115520000Y-97775000D03*
X118060000Y-97775000D03*
X115520000Y-100315000D03*
X118060000Y-100315000D03*
D25*
X99300000Y-97225000D03*
X98000000Y-97225000D03*
D26*
X132975000Y-115975000D03*
X131325000Y-115975000D03*
D20*
X125650000Y-115395000D03*
X125650000Y-113745000D03*
D11*
X85485000Y-93725000D03*
X87135000Y-93725000D03*
D19*
X140190000Y-133340000D03*
X140190000Y-130800000D03*
D14*
X137650000Y-133340000D03*
D15*
X137650000Y-130800000D03*
D16*
X79650000Y-138725000D03*
D27*
X126627500Y-103120000D03*
X126627500Y-103770000D03*
X126627500Y-104420000D03*
X126627500Y-105070000D03*
X126627500Y-105720000D03*
X126627500Y-106370000D03*
X126627500Y-107020000D03*
X126627500Y-107670000D03*
X132352500Y-107670000D03*
X132352500Y-107020000D03*
X132352500Y-106370000D03*
X132352500Y-105720000D03*
X132352500Y-105070000D03*
X132352500Y-104420000D03*
X132352500Y-103770000D03*
X132352500Y-103120000D03*
D22*
X133120000Y-120310000D03*
X133120000Y-118760000D03*
D16*
X79650000Y-89725000D03*
D28*
X91215001Y-129551000D03*
X91215001Y-130201001D03*
X91215001Y-130851000D03*
X91215001Y-131501001D03*
X91215001Y-132151000D03*
X91215001Y-132801001D03*
X91215001Y-133451000D03*
X91215001Y-134101001D03*
X97315002Y-134101001D03*
X97315002Y-133451000D03*
X97315002Y-132801001D03*
X97315002Y-132151000D03*
X97315002Y-131501001D03*
X97315002Y-130851000D03*
X97315002Y-130201001D03*
X97315002Y-129551000D03*
D29*
X92915000Y-129925998D03*
X92915000Y-130875998D03*
X92915000Y-131825999D03*
X92915000Y-132776000D03*
X92915000Y-133726000D03*
X94265000Y-129925998D03*
X94265000Y-130875998D03*
X94265000Y-131825999D03*
X94265000Y-132776000D03*
X94265000Y-133726000D03*
D30*
X94290400Y-131825999D03*
D29*
X95615000Y-129925998D03*
X95615000Y-130875998D03*
X95615000Y-131825999D03*
X95615000Y-132776000D03*
X95615000Y-133726000D03*
D21*
X117550000Y-135000000D03*
X117550000Y-136550000D03*
D20*
X125650000Y-121550000D03*
X125650000Y-119900000D03*
D11*
X128625000Y-111225000D03*
X130275000Y-111225000D03*
D12*
X112650000Y-107185000D03*
D13*
X112650000Y-109725000D03*
X112650000Y-112265000D03*
X112650000Y-114805000D03*
D22*
X125650000Y-124500000D03*
X125650000Y-122950000D03*
D12*
X112985000Y-95235000D03*
D13*
X112985000Y-97775000D03*
X112985000Y-100315000D03*
D31*
X80945000Y-127430000D03*
D32*
X80945000Y-132510000D03*
D20*
X130150000Y-127550000D03*
X130150000Y-125900000D03*
D26*
X126475000Y-100425000D03*
X124825000Y-100425000D03*
D22*
X134650000Y-102750000D03*
X134650000Y-101200000D03*
D11*
X136725000Y-96825000D03*
X138375000Y-96825000D03*
D17*
X102525000Y-131325000D03*
X100975000Y-131325000D03*
D18*
X128650000Y-125900000D03*
X128650000Y-127550000D03*
X102650000Y-96150000D03*
X102650000Y-97800000D03*
D12*
X83650000Y-108725000D03*
D13*
X83650000Y-106185000D03*
D20*
X132950000Y-114350000D03*
X132950000Y-112700000D03*
D33*
X98495000Y-104938800D03*
X99765000Y-104938800D03*
X101035000Y-104938800D03*
X102305000Y-104938800D03*
X102305000Y-100011200D03*
X101035000Y-100011200D03*
X99765000Y-100011200D03*
X98495000Y-100011200D03*
D16*
X137650000Y-138725000D03*
D11*
X121120000Y-110475000D03*
X122770000Y-110475000D03*
D12*
X123140000Y-95235000D03*
D13*
X125680000Y-95235000D03*
X128220000Y-95235000D03*
X130760000Y-95235000D03*
D12*
X92660000Y-102840000D03*
D13*
X92660000Y-100300000D03*
X92660000Y-97760000D03*
D28*
X108308335Y-129644893D03*
X108308335Y-130294894D03*
X108308335Y-130944893D03*
X108308335Y-131594894D03*
X108308335Y-132244893D03*
X108308335Y-132894894D03*
X108308335Y-133544893D03*
X108308335Y-134194894D03*
X114408336Y-134194894D03*
X114408336Y-133544893D03*
X114408336Y-132894894D03*
X114408336Y-132244893D03*
X114408336Y-131594894D03*
X114408336Y-130944893D03*
X114408336Y-130294894D03*
X114408336Y-129644893D03*
D29*
X110008334Y-130019891D03*
X110008334Y-130969891D03*
X110008334Y-131919892D03*
X110008334Y-132869893D03*
X110008334Y-133819893D03*
X111358334Y-130019891D03*
X111358334Y-130969891D03*
X111358334Y-131919892D03*
X111358334Y-132869893D03*
X111358334Y-133819893D03*
D30*
X111383734Y-131919892D03*
D29*
X112708334Y-130019891D03*
X112708334Y-130969891D03*
X112708334Y-131919892D03*
X112708334Y-132869893D03*
X112708334Y-133819893D03*
D12*
X105355000Y-100300000D03*
D13*
X105355000Y-97760000D03*
X105355000Y-95220000D03*
D26*
X123975000Y-115225000D03*
X122325000Y-115225000D03*
D17*
X123925000Y-113725000D03*
X122375000Y-113725000D03*
D21*
X124150000Y-122950000D03*
X124150000Y-124500000D03*
D11*
X127925000Y-100425000D03*
X129575000Y-100425000D03*
D21*
X101100000Y-134700000D03*
X101100000Y-136250000D03*
D26*
X89225000Y-133375000D03*
X87575000Y-133375000D03*
X105975000Y-133425000D03*
X104325000Y-133425000D03*
D11*
X128325000Y-115975000D03*
X129975000Y-115975000D03*
D21*
X119100000Y-135000000D03*
X119100000Y-136550000D03*
D18*
X124150000Y-125900000D03*
X124150000Y-127550000D03*
X125650000Y-127600000D03*
X125650000Y-129250000D03*
D34*
X127245000Y-123450000D03*
X128515000Y-123450000D03*
X129785000Y-123450000D03*
X131055000Y-123450000D03*
X131055000Y-118500000D03*
X129785000Y-118500000D03*
X128515000Y-118500000D03*
X127245000Y-118500000D03*
D12*
X84520000Y-90995000D03*
D13*
X84520000Y-88455000D03*
X87060000Y-90995000D03*
X87060000Y-88455000D03*
X89600000Y-90995000D03*
X89600000Y-88455000D03*
X92140000Y-90995000D03*
X92140000Y-88455000D03*
X94680000Y-90995000D03*
X94680000Y-88455000D03*
X97220000Y-90995000D03*
X97220000Y-88455000D03*
X99760000Y-90995000D03*
X99760000Y-88455000D03*
X102300000Y-90995000D03*
X102300000Y-88455000D03*
X104840000Y-90995000D03*
X104840000Y-88455000D03*
X107380000Y-90995000D03*
X107380000Y-88455000D03*
X109920000Y-90995000D03*
X109920000Y-88455000D03*
X112460000Y-90995000D03*
X112460000Y-88455000D03*
X115000000Y-90995000D03*
X115000000Y-88455000D03*
X117540000Y-90995000D03*
X117540000Y-88455000D03*
X120080000Y-90995000D03*
X120080000Y-88455000D03*
X122620000Y-90995000D03*
X122620000Y-88455000D03*
X125160000Y-90995000D03*
X125160000Y-88455000D03*
X127700000Y-90995000D03*
X127700000Y-88455000D03*
X130240000Y-90995000D03*
X130240000Y-88455000D03*
X132780000Y-90995000D03*
X132780000Y-88455000D03*
M02*
