M48
; DRILL file {KiCad 9.0.0} date 2025-04-25T21:38:19-0400
; FORMAT={-:-/ absolute / metric / decimal}
; #@! TF.CreationDate,2025-04-25T21:38:19-04:00
; #@! TF.GenerationSoftware,Kicad,Pcbnew,9.0.0
; #@! TF.FileFunction,Plated,1,4,PTH
FMAT,2
METRIC
; #@! TA.AperFunction,Plated,PTH,ComponentDrill
T1C0.300
; #@! TA.AperFunction,Plated,PTH,ViaDrill
T2C0.400
; #@! TA.AperFunction,Plated,PTH,ComponentDrill
T3C1.000
; #@! TA.AperFunction,Plated,PTH,ComponentDrill
T4C1.100
; #@! TA.AperFunction,Plated,PTH,ComponentDrill
T5C1.300
%
G90
G05
T1
X92.915Y-129.926
X92.915Y-130.876
X92.915Y-131.826
X92.915Y-132.776
X92.915Y-133.726
X94.265Y-129.926
X94.265Y-130.876
X94.265Y-131.826
X94.265Y-132.776
X94.265Y-133.726
X95.615Y-129.926
X95.615Y-130.876
X95.615Y-131.826
X95.615Y-132.776
X95.615Y-133.726
X110.008Y-130.02
X110.008Y-130.97
X110.008Y-131.92
X110.008Y-132.87
X110.008Y-133.82
X111.358Y-130.02
X111.358Y-130.97
X111.358Y-131.92
X111.358Y-132.87
X111.358Y-133.82
X112.708Y-130.02
X112.708Y-130.97
X112.708Y-131.92
X112.708Y-132.87
X112.708Y-133.82
T2
X86.335Y-96.225
X87.55Y-130.725
X88.05Y-96.225
X88.4Y-134.725
X89.15Y-113.225
X89.15Y-114.825
X92.4Y-116.675
X92.4Y-117.975
X93.35Y-107.925
X94.15Y-107.025
X94.55Y-121.225
X94.9Y-117.975
X97.35Y-126.125
X97.35Y-128.725
X99.45Y-126.125
X99.85Y-121.225
X99.9Y-133.225
X101.035Y-101.925
X101.15Y-133.225
X101.85Y-138.225
X102.305Y-101.925
X102.4Y-133.225
X104.875Y-129.1
X105.35Y-134.725
X108.05Y-125.925
X111.55Y-117.725
X112.45Y-126.025
X114.35Y-126.025
X114.351Y-128.772
X116.15Y-113.625
X116.65Y-133.225
X116.85Y-106.125
X117.9Y-133.225
X118.35Y-138.225
X119.15Y-133.225
X119.65Y-105.725
X119.65Y-106.725
X121.65Y-100.225
X122.65Y-108.475
X123.75Y-116.825
X124.15Y-129.325
X127.25Y-111.425
X127.35Y-121.025
X128.168Y-103.338
X128.409Y-104.597
X129.65Y-108.725
X130.9Y-104.31
X130.9Y-106.895
X131.65Y-112.7
X131.65Y-130.625
X132.4Y-109.225
X132.95Y-124.715
X133.25Y-102.125
X134.15Y-105.225
X134.15Y-107.725
X135.15Y-104.225
T3
X83.65Y-106.185
X83.65Y-108.725
X83.65Y-119.647
X83.65Y-122.187
X84.52Y-88.455
X84.52Y-90.995
X87.06Y-88.455
X87.06Y-90.995
X89.6Y-88.455
X89.6Y-90.995
X90.12Y-95.225
X90.12Y-97.765
X90.12Y-100.305
X90.12Y-102.845
X92.14Y-88.455
X92.14Y-90.995
X92.66Y-97.76
X92.66Y-100.3
X92.66Y-102.84
X94.68Y-88.455
X94.68Y-90.995
X95.2Y-97.76
X95.2Y-100.3
X95.2Y-102.84
X97.22Y-88.455
X97.22Y-90.995
X99.76Y-88.455
X99.76Y-90.995
X102.3Y-88.455
X102.3Y-90.995
X104.84Y-88.455
X104.84Y-90.995
X105.355Y-95.22
X105.355Y-97.76
X105.355Y-100.3
X107.018Y-106.185
X107.018Y-108.725
X107.018Y-119.647
X107.018Y-122.187
X107.38Y-88.455
X107.38Y-90.995
X107.9Y-95.22
X107.9Y-97.76
X107.9Y-100.3
X109.92Y-88.455
X109.92Y-90.995
X112.46Y-88.455
X112.46Y-90.995
X112.65Y-107.185
X112.65Y-109.725
X112.65Y-112.265
X112.65Y-114.805
X112.985Y-95.235
X112.985Y-97.775
X112.985Y-100.315
X115.0Y-88.455
X115.0Y-90.995
X115.52Y-95.235
X115.52Y-97.775
X115.52Y-100.315
X117.54Y-88.455
X117.54Y-90.995
X118.06Y-95.235
X118.06Y-97.775
X118.06Y-100.315
X120.08Y-88.455
X120.08Y-90.995
X122.62Y-88.455
X122.62Y-90.995
X123.14Y-95.235
X123.14Y-97.775
X125.16Y-88.455
X125.16Y-90.995
X125.68Y-95.235
X125.68Y-97.775
X127.7Y-88.455
X127.7Y-90.995
X128.22Y-95.235
X128.22Y-97.775
X130.24Y-88.455
X130.24Y-90.995
X130.76Y-95.235
X130.76Y-97.775
X132.78Y-88.455
X132.78Y-90.995
T4
X79.65Y-96.505
X79.65Y-99.045
X79.65Y-101.585
X90.535Y-138.679
X93.075Y-138.679
X95.615Y-138.679
X98.155Y-138.679
X106.935Y-138.772
X109.475Y-138.772
X112.015Y-138.772
X114.555Y-138.772
X137.65Y-107.94
X137.65Y-110.48
X137.65Y-115.555
X137.65Y-118.095
X137.65Y-123.18
X137.65Y-125.72
X137.65Y-130.8
X137.65Y-133.34
T5
X80.945Y-127.43
X80.945Y-132.51
M30
